# xmcd CD database file
#
# Track frame offsets:
#	150
#	24362
#	33923
#	47613
#	49318
#	68203
#	79281
#	90318
#	103999
#	109403
#	121650
#	140597
#	162306
#	174310
#	190042
#	195037
#	216289
#	240296
#	254273
#
# Disc length: 3737 seconds
#
# Revision: 0
# Processed by: cddbd v1.5.2PL0 Copyright (c) Steve Scherf et al.
# Submitted via: CDex 1.70beta1
#
DISCID=f70e9713
DTITLE=Toby Walker - Just Rolled In
DYEAR=2007
DGENRE=Blues
TTITLE0=Pony Blues
TTITLE1=Intro to I'm Gonna Try Some of That
TTITLE2=I'm Gonna Try Some of That
TTITLE3=Intro to Cat Man Blues
TTITLE4=Cat Man Blues
TTITLE5=Intro to Sundance Rag
TTITLE6=Sundance Rag
TTITLE7=That's My Version of a Good Idea
TTITLE8=Intro to Blame It on the Bass Player
TTITLE9=Blame It on the Bass Player
TTITLE10=Beefsteak When I'm Hungry
TTITLE11=St. James Infirmary
TTITLE12=Chasin' These Blues Away
TTITLE13=Frankie and Johnny
TTITLE14=Intro to Bernie's Blues
TTITLE15=Bernie's Blues
TTITLE16=I Got the Dirt On You
TTITLE17=Ain't Misbehavin'
TTITLE18=Nobody's Fault But Mine
EXTD=YEAR: 2007
EXTT0=
EXTT1=
EXTT2=
EXTT3=
EXTT4=
EXTT5=
EXTT6=
EXTT7=
EXTT8=
EXTT9=
EXTT10=
EXTT11=
EXTT12=
EXTT13=
EXTT14=
EXTT15=
EXTT16=
EXTT17=
EXTT18=
PLAYORDER=
